<mxfile host="app.diagrams.net" modified="2024-04-26T17:04:27.651Z" agent="Mozilla/5.0 (Windows NT 10.0; Win64; x64) AppleWebKit/537.36 (KHTML, like Gecko) Chrome/124.0.0.0 Safari/537.36 Edg/124.0.0.0" etag="GAEcyuoRlUgMHNLCfLCY" version="24.2.7" type="device" pages="2">
  <diagram name="Page-1" id="NZObzftYaRMVQlycntrI">
    <mxGraphModel dx="-212" dy="360" grid="1" gridSize="10" guides="1" tooltips="1" connect="1" arrows="1" fold="1" page="1" pageScale="1" pageWidth="850" pageHeight="1100" math="0" shadow="0">
      <root>
        <mxCell id="0" />
        <mxCell id="1" parent="0" />
        <mxCell id="6HRYTmLF2GMswpSqAz99-2" value="" style="group;movable=1;resizable=1;rotatable=1;deletable=1;editable=1;locked=0;connectable=1;" parent="1" vertex="1" connectable="0">
          <mxGeometry x="1340" y="330" width="240" height="170" as="geometry" />
        </mxCell>
        <mxCell id="tJ6ijP1tUuQRt77W8Tcq-2" value="" style="group;movable=1;resizable=1;rotatable=1;deletable=1;editable=1;locked=0;connectable=1;" parent="6HRYTmLF2GMswpSqAz99-2" vertex="1" connectable="0">
          <mxGeometry width="140" height="170" as="geometry" />
        </mxCell>
        <mxCell id="UfTuCf3OS7GKTQSjwRax-13" value="" style="rounded=1;whiteSpace=wrap;html=1;" parent="tJ6ijP1tUuQRt77W8Tcq-2" vertex="1">
          <mxGeometry width="120" height="160" as="geometry" />
        </mxCell>
        <mxCell id="UfTuCf3OS7GKTQSjwRax-14" value="" style="endArrow=none;html=1;rounded=0;" parent="tJ6ijP1tUuQRt77W8Tcq-2" target="UfTuCf3OS7GKTQSjwRax-13" edge="1">
          <mxGeometry width="50" height="50" relative="1" as="geometry">
            <mxPoint y="60" as="sourcePoint" />
            <mxPoint x="50" y="10" as="targetPoint" />
          </mxGeometry>
        </mxCell>
        <mxCell id="UfTuCf3OS7GKTQSjwRax-15" value="" style="endArrow=none;html=1;rounded=0;entryX=1.002;entryY=0.312;entryDx=0;entryDy=0;entryPerimeter=0;" parent="tJ6ijP1tUuQRt77W8Tcq-2" edge="1">
          <mxGeometry width="50" height="50" relative="1" as="geometry">
            <mxPoint y="30.079999999999984" as="sourcePoint" />
            <mxPoint x="120.24000000000001" y="30" as="targetPoint" />
          </mxGeometry>
        </mxCell>
        <mxCell id="UfTuCf3OS7GKTQSjwRax-16" value="" style="endArrow=none;html=1;rounded=0;entryX=1.002;entryY=0.312;entryDx=0;entryDy=0;entryPerimeter=0;" parent="tJ6ijP1tUuQRt77W8Tcq-2" edge="1">
          <mxGeometry width="50" height="50" relative="1" as="geometry">
            <mxPoint y="120" as="sourcePoint" />
            <mxPoint x="120" y="120" as="targetPoint" />
          </mxGeometry>
        </mxCell>
        <mxCell id="UfTuCf3OS7GKTQSjwRax-17" value="&lt;span style=&quot;font-size: 8px;&quot;&gt;Asignatura&lt;/span&gt;" style="text;html=1;align=center;verticalAlign=middle;whiteSpace=wrap;rounded=0;" parent="tJ6ijP1tUuQRt77W8Tcq-2" vertex="1">
          <mxGeometry width="120" height="30" as="geometry" />
        </mxCell>
        <mxCell id="UfTuCf3OS7GKTQSjwRax-18" value="&lt;div style=&quot;font-size: 11px;&quot;&gt;&lt;div&gt;-nombre: string&lt;/div&gt;&lt;div&gt;-cuatrimestre: int&lt;/div&gt;&lt;/div&gt;" style="text;html=1;align=center;verticalAlign=middle;whiteSpace=wrap;rounded=0;" parent="tJ6ijP1tUuQRt77W8Tcq-2" vertex="1">
          <mxGeometry y="50" width="120" height="40" as="geometry" />
        </mxCell>
        <mxCell id="tiQHzQN0womBGGPq7z8X-12" value="&lt;div style=&quot;forced-color-adjust: none; color: rgb(0, 0, 0); font-family: Helvetica; font-style: normal; font-variant-ligatures: normal; font-variant-caps: normal; font-weight: 400; letter-spacing: normal; orphans: 2; text-align: center; text-indent: 0px; text-transform: none; widows: 2; word-spacing: 0px; -webkit-text-stroke-width: 0px; white-space: normal; background-color: rgb(251, 251, 251); text-decoration-thickness: initial; text-decoration-style: initial; text-decoration-color: initial;&quot;&gt;&lt;font style=&quot;font-size: 8px;&quot;&gt;+ObtenerNombreAsignatura(): String&lt;/font&gt;&lt;/div&gt;" style="text;whiteSpace=wrap;html=1;movable=1;resizable=1;rotatable=1;deletable=1;editable=1;locked=0;connectable=1;" vertex="1" parent="tJ6ijP1tUuQRt77W8Tcq-2">
          <mxGeometry x="5" y="120" width="105" height="30" as="geometry" />
        </mxCell>
        <mxCell id="tJ6ijP1tUuQRt77W8Tcq-11" value="Imparte" style="text;html=1;align=center;verticalAlign=middle;whiteSpace=wrap;rounded=0;" parent="6HRYTmLF2GMswpSqAz99-2" vertex="1">
          <mxGeometry x="140" y="50" width="60" height="30" as="geometry" />
        </mxCell>
        <mxCell id="tJ6ijP1tUuQRt77W8Tcq-12" value="&lt;font style=&quot;font-size: 9px;&quot;&gt;1:N&lt;/font&gt;" style="text;html=1;align=center;verticalAlign=middle;whiteSpace=wrap;rounded=0;" parent="6HRYTmLF2GMswpSqAz99-2" vertex="1">
          <mxGeometry x="100" y="80" width="60" height="30" as="geometry" />
        </mxCell>
        <mxCell id="tJ6ijP1tUuQRt77W8Tcq-13" value="&lt;font style=&quot;font-size: 9px;&quot;&gt;1:N&lt;/font&gt;" style="text;html=1;align=center;verticalAlign=middle;whiteSpace=wrap;rounded=0;" parent="6HRYTmLF2GMswpSqAz99-2" vertex="1">
          <mxGeometry x="180" y="80" width="60" height="30" as="geometry" />
        </mxCell>
        <mxCell id="tJ6ijP1tUuQRt77W8Tcq-3" value="" style="group" parent="1" vertex="1" connectable="0">
          <mxGeometry x="1560" y="330" width="120.24000000000001" height="160" as="geometry" />
        </mxCell>
        <mxCell id="tJ6ijP1tUuQRt77W8Tcq-4" value="" style="rounded=1;whiteSpace=wrap;html=1;" parent="tJ6ijP1tUuQRt77W8Tcq-3" vertex="1">
          <mxGeometry width="120" height="160" as="geometry" />
        </mxCell>
        <mxCell id="tJ6ijP1tUuQRt77W8Tcq-5" value="" style="endArrow=none;html=1;rounded=0;" parent="tJ6ijP1tUuQRt77W8Tcq-3" target="tJ6ijP1tUuQRt77W8Tcq-4" edge="1">
          <mxGeometry width="50" height="50" relative="1" as="geometry">
            <mxPoint y="60" as="sourcePoint" />
            <mxPoint x="50" y="10" as="targetPoint" />
          </mxGeometry>
        </mxCell>
        <mxCell id="tJ6ijP1tUuQRt77W8Tcq-6" value="" style="endArrow=none;html=1;rounded=0;entryX=1.002;entryY=0.312;entryDx=0;entryDy=0;entryPerimeter=0;" parent="tJ6ijP1tUuQRt77W8Tcq-3" edge="1">
          <mxGeometry width="50" height="50" relative="1" as="geometry">
            <mxPoint y="30.079999999999984" as="sourcePoint" />
            <mxPoint x="120.24000000000001" y="30" as="targetPoint" />
          </mxGeometry>
        </mxCell>
        <mxCell id="tJ6ijP1tUuQRt77W8Tcq-7" value="" style="endArrow=none;html=1;rounded=0;entryX=1.002;entryY=0.312;entryDx=0;entryDy=0;entryPerimeter=0;" parent="tJ6ijP1tUuQRt77W8Tcq-3" edge="1">
          <mxGeometry width="50" height="50" relative="1" as="geometry">
            <mxPoint y="120" as="sourcePoint" />
            <mxPoint x="120" y="120" as="targetPoint" />
          </mxGeometry>
        </mxCell>
        <mxCell id="tJ6ijP1tUuQRt77W8Tcq-8" value="&lt;span style=&quot;font-size: 8px;&quot;&gt;Profesor&lt;/span&gt;" style="text;html=1;align=center;verticalAlign=middle;whiteSpace=wrap;rounded=0;" parent="tJ6ijP1tUuQRt77W8Tcq-3" vertex="1">
          <mxGeometry width="120" height="30" as="geometry" />
        </mxCell>
        <mxCell id="tJ6ijP1tUuQRt77W8Tcq-9" value="&lt;div style=&quot;font-size: 11px;&quot;&gt;-nombre: string&lt;/div&gt;&lt;div style=&quot;font-size: 11px;&quot;&gt;-departamento: int&lt;/div&gt;" style="text;html=1;align=center;verticalAlign=middle;whiteSpace=wrap;rounded=0;" parent="tJ6ijP1tUuQRt77W8Tcq-3" vertex="1">
          <mxGeometry y="50" width="120" height="40" as="geometry" />
        </mxCell>
        <mxCell id="tiQHzQN0womBGGPq7z8X-13" value="&lt;div style=&quot;forced-color-adjust: none; color: rgb(0, 0, 0); font-family: Helvetica; font-style: normal; font-variant-ligatures: normal; font-variant-caps: normal; font-weight: 400; letter-spacing: normal; orphans: 2; text-align: center; text-indent: 0px; text-transform: none; widows: 2; word-spacing: 0px; -webkit-text-stroke-width: 0px; white-space: normal; background-color: rgb(251, 251, 251); text-decoration-thickness: initial; text-decoration-style: initial; text-decoration-color: initial;&quot;&gt;&lt;font style=&quot;font-size: 8px;&quot;&gt;+ObtenerNombreProf(): String&lt;/font&gt;&lt;/div&gt;" style="text;whiteSpace=wrap;html=1;movable=1;resizable=1;rotatable=1;deletable=1;editable=1;locked=0;connectable=1;" vertex="1" parent="tJ6ijP1tUuQRt77W8Tcq-3">
          <mxGeometry x="7.5" y="120" width="105" height="30" as="geometry" />
        </mxCell>
        <mxCell id="tJ6ijP1tUuQRt77W8Tcq-10" style="edgeStyle=orthogonalEdgeStyle;rounded=0;orthogonalLoop=1;jettySize=auto;html=1;exitX=0;exitY=0.75;exitDx=0;exitDy=0;entryX=1;entryY=0.75;entryDx=0;entryDy=0;endArrow=none;endFill=0;" parent="1" source="tJ6ijP1tUuQRt77W8Tcq-9" target="UfTuCf3OS7GKTQSjwRax-18" edge="1">
          <mxGeometry relative="1" as="geometry" />
        </mxCell>
        <mxCell id="tJ6ijP1tUuQRt77W8Tcq-14" value="" style="group" parent="1" vertex="1" connectable="0">
          <mxGeometry x="1340" y="30" width="160" height="160" as="geometry" />
        </mxCell>
        <mxCell id="tJ6ijP1tUuQRt77W8Tcq-15" value="" style="rounded=1;whiteSpace=wrap;html=1;" parent="tJ6ijP1tUuQRt77W8Tcq-14" vertex="1">
          <mxGeometry width="120" height="160" as="geometry" />
        </mxCell>
        <mxCell id="tJ6ijP1tUuQRt77W8Tcq-16" value="" style="endArrow=none;html=1;rounded=0;" parent="tJ6ijP1tUuQRt77W8Tcq-14" target="tJ6ijP1tUuQRt77W8Tcq-15" edge="1">
          <mxGeometry width="50" height="50" relative="1" as="geometry">
            <mxPoint y="60" as="sourcePoint" />
            <mxPoint x="50" y="10" as="targetPoint" />
          </mxGeometry>
        </mxCell>
        <mxCell id="tJ6ijP1tUuQRt77W8Tcq-17" value="" style="endArrow=none;html=1;rounded=0;entryX=1.002;entryY=0.312;entryDx=0;entryDy=0;entryPerimeter=0;" parent="tJ6ijP1tUuQRt77W8Tcq-14" edge="1">
          <mxGeometry width="50" height="50" relative="1" as="geometry">
            <mxPoint y="30.079999999999984" as="sourcePoint" />
            <mxPoint x="120.24000000000001" y="30" as="targetPoint" />
          </mxGeometry>
        </mxCell>
        <mxCell id="tJ6ijP1tUuQRt77W8Tcq-18" value="" style="endArrow=none;html=1;rounded=0;entryX=1.002;entryY=0.312;entryDx=0;entryDy=0;entryPerimeter=0;" parent="tJ6ijP1tUuQRt77W8Tcq-14" edge="1">
          <mxGeometry width="50" height="50" relative="1" as="geometry">
            <mxPoint y="100" as="sourcePoint" />
            <mxPoint x="120" y="100" as="targetPoint" />
          </mxGeometry>
        </mxCell>
        <mxCell id="tJ6ijP1tUuQRt77W8Tcq-19" value="&lt;span style=&quot;font-size: 8px;&quot;&gt;Aula&lt;/span&gt;" style="text;html=1;align=center;verticalAlign=middle;whiteSpace=wrap;rounded=0;" parent="tJ6ijP1tUuQRt77W8Tcq-14" vertex="1">
          <mxGeometry width="120" height="30" as="geometry" />
        </mxCell>
        <mxCell id="tJ6ijP1tUuQRt77W8Tcq-29" style="edgeStyle=orthogonalEdgeStyle;rounded=0;orthogonalLoop=1;jettySize=auto;html=1;exitX=0;exitY=0.75;exitDx=0;exitDy=0;endArrow=none;endFill=0;" parent="tJ6ijP1tUuQRt77W8Tcq-14" source="tJ6ijP1tUuQRt77W8Tcq-20" edge="1">
          <mxGeometry relative="1" as="geometry">
            <mxPoint x="-110" y="80.28571428571433" as="targetPoint" />
          </mxGeometry>
        </mxCell>
        <mxCell id="tJ6ijP1tUuQRt77W8Tcq-20" value="&lt;div style=&quot;font-size: 11px;&quot;&gt;-numero: int&lt;/div&gt;&lt;div style=&quot;font-size: 11px;&quot;&gt;-capacidad: int&lt;/div&gt;&lt;div style=&quot;font-size: 11px;&quot;&gt;-esInformatica: bool&lt;/div&gt;&lt;div style=&quot;font-size: 11px;&quot;&gt;-pizarra: Pizarra&lt;/div&gt;" style="text;html=1;align=center;verticalAlign=middle;whiteSpace=wrap;rounded=0;" parent="tJ6ijP1tUuQRt77W8Tcq-14" vertex="1">
          <mxGeometry y="50" width="120" height="40" as="geometry" />
        </mxCell>
        <mxCell id="tJ6ijP1tUuQRt77W8Tcq-44" value="&lt;span style=&quot;color: rgb(0, 0, 0); font-family: Helvetica; font-size: 9px; font-style: normal; font-variant-ligatures: normal; font-variant-caps: normal; font-weight: 400; letter-spacing: normal; orphans: 2; text-align: center; text-indent: 0px; text-transform: none; widows: 2; word-spacing: 0px; -webkit-text-stroke-width: 0px; white-space: normal; background-color: rgb(251, 251, 251); text-decoration-thickness: initial; text-decoration-style: initial; text-decoration-color: initial; display: inline !important; float: none;&quot;&gt;+ ObtenerNumero(): int&lt;/span&gt;&lt;div&gt;&lt;span style=&quot;color: rgb(0, 0, 0); font-family: Helvetica; font-size: 9px; font-style: normal; font-variant-ligatures: normal; font-variant-caps: normal; font-weight: 400; letter-spacing: normal; orphans: 2; text-align: center; text-indent: 0px; text-transform: none; widows: 2; word-spacing: 0px; -webkit-text-stroke-width: 0px; white-space: normal; background-color: rgb(251, 251, 251); text-decoration-thickness: initial; text-decoration-style: initial; text-decoration-color: initial; display: inline !important; float: none;&quot;&gt;+ObtenerCapacidad(): int&lt;/span&gt;&lt;/div&gt;&lt;div style=&quot;text-align: center;&quot;&gt;&lt;font style=&quot;font-size: 9px;&quot;&gt;+ EsInformatica(): bool&lt;/font&gt;&lt;/div&gt;&lt;div style=&quot;text-align: center;&quot;&gt;&lt;font style=&quot;font-size: 9px;&quot;&gt;&lt;br&gt;&lt;/font&gt;&lt;/div&gt;" style="text;whiteSpace=wrap;html=1;" parent="tJ6ijP1tUuQRt77W8Tcq-14" vertex="1">
          <mxGeometry x="10" y="100" width="150" height="40" as="geometry" />
        </mxCell>
        <mxCell id="tJ6ijP1tUuQRt77W8Tcq-21" value="" style="endArrow=classic;html=1;rounded=0;exitX=1;exitY=0.75;exitDx=0;exitDy=0;fillColor=#dae8fc;strokeColor=#6c8ebf;" parent="1" source="tJ6ijP1tUuQRt77W8Tcq-20" edge="1">
          <mxGeometry width="50" height="50" relative="1" as="geometry">
            <mxPoint x="1510" y="240" as="sourcePoint" />
            <mxPoint x="1570" y="110" as="targetPoint" />
          </mxGeometry>
        </mxCell>
        <mxCell id="tJ6ijP1tUuQRt77W8Tcq-22" value="" style="group" parent="1" vertex="1" connectable="0">
          <mxGeometry x="1570" y="20" width="120.24000000000001" height="160" as="geometry" />
        </mxCell>
        <mxCell id="tJ6ijP1tUuQRt77W8Tcq-23" value="" style="rounded=1;whiteSpace=wrap;html=1;" parent="tJ6ijP1tUuQRt77W8Tcq-22" vertex="1">
          <mxGeometry width="120" height="160" as="geometry" />
        </mxCell>
        <mxCell id="tJ6ijP1tUuQRt77W8Tcq-24" value="" style="endArrow=none;html=1;rounded=0;" parent="tJ6ijP1tUuQRt77W8Tcq-22" target="tJ6ijP1tUuQRt77W8Tcq-23" edge="1">
          <mxGeometry width="50" height="50" relative="1" as="geometry">
            <mxPoint y="60" as="sourcePoint" />
            <mxPoint x="50" y="10" as="targetPoint" />
          </mxGeometry>
        </mxCell>
        <mxCell id="tJ6ijP1tUuQRt77W8Tcq-25" value="" style="endArrow=none;html=1;rounded=0;entryX=1.002;entryY=0.312;entryDx=0;entryDy=0;entryPerimeter=0;" parent="tJ6ijP1tUuQRt77W8Tcq-22" edge="1">
          <mxGeometry width="50" height="50" relative="1" as="geometry">
            <mxPoint y="30.079999999999984" as="sourcePoint" />
            <mxPoint x="120.24000000000001" y="30" as="targetPoint" />
          </mxGeometry>
        </mxCell>
        <mxCell id="tJ6ijP1tUuQRt77W8Tcq-26" value="" style="endArrow=none;html=1;rounded=0;entryX=1.002;entryY=0.312;entryDx=0;entryDy=0;entryPerimeter=0;" parent="tJ6ijP1tUuQRt77W8Tcq-22" edge="1">
          <mxGeometry width="50" height="50" relative="1" as="geometry">
            <mxPoint y="120" as="sourcePoint" />
            <mxPoint x="120" y="120" as="targetPoint" />
          </mxGeometry>
        </mxCell>
        <mxCell id="tJ6ijP1tUuQRt77W8Tcq-27" value="&lt;span style=&quot;font-size: 8px;&quot;&gt;AulaInformatica&lt;/span&gt;" style="text;html=1;align=center;verticalAlign=middle;whiteSpace=wrap;rounded=0;" parent="tJ6ijP1tUuQRt77W8Tcq-22" vertex="1">
          <mxGeometry width="120" height="30" as="geometry" />
        </mxCell>
        <mxCell id="tJ6ijP1tUuQRt77W8Tcq-28" value="&lt;div style=&quot;&quot;&gt;&lt;font style=&quot;font-size: 9px;&quot;&gt;-numeroOrdenadores: int&lt;/font&gt;&lt;/div&gt;" style="text;html=1;align=center;verticalAlign=middle;whiteSpace=wrap;rounded=0;" parent="tJ6ijP1tUuQRt77W8Tcq-22" vertex="1">
          <mxGeometry y="50" width="120" height="40" as="geometry" />
        </mxCell>
        <mxCell id="tJ6ijP1tUuQRt77W8Tcq-41" value="&lt;div style=&quot;&quot;&gt;&lt;font style=&quot;font-size: 9px;&quot;&gt;+CantidadOrdenadores(): int&lt;/font&gt;&lt;/div&gt;" style="text;html=1;align=center;verticalAlign=middle;whiteSpace=wrap;rounded=0;" parent="tJ6ijP1tUuQRt77W8Tcq-22" vertex="1">
          <mxGeometry y="120" width="120" height="40" as="geometry" />
        </mxCell>
        <mxCell id="tJ6ijP1tUuQRt77W8Tcq-30" value="" style="group" parent="1" vertex="1" connectable="0">
          <mxGeometry x="1110" y="30" width="120.24000000000001" height="160" as="geometry" />
        </mxCell>
        <mxCell id="tJ6ijP1tUuQRt77W8Tcq-31" value="" style="rounded=1;whiteSpace=wrap;html=1;" parent="tJ6ijP1tUuQRt77W8Tcq-30" vertex="1">
          <mxGeometry width="120" height="160" as="geometry" />
        </mxCell>
        <mxCell id="tJ6ijP1tUuQRt77W8Tcq-32" value="" style="endArrow=none;html=1;rounded=0;" parent="tJ6ijP1tUuQRt77W8Tcq-30" target="tJ6ijP1tUuQRt77W8Tcq-31" edge="1">
          <mxGeometry width="50" height="50" relative="1" as="geometry">
            <mxPoint y="60" as="sourcePoint" />
            <mxPoint x="50" y="10" as="targetPoint" />
          </mxGeometry>
        </mxCell>
        <mxCell id="tJ6ijP1tUuQRt77W8Tcq-33" value="" style="endArrow=none;html=1;rounded=0;entryX=1.002;entryY=0.312;entryDx=0;entryDy=0;entryPerimeter=0;" parent="tJ6ijP1tUuQRt77W8Tcq-30" edge="1">
          <mxGeometry width="50" height="50" relative="1" as="geometry">
            <mxPoint y="30.079999999999984" as="sourcePoint" />
            <mxPoint x="120.24000000000001" y="30" as="targetPoint" />
          </mxGeometry>
        </mxCell>
        <mxCell id="tJ6ijP1tUuQRt77W8Tcq-34" value="" style="endArrow=none;html=1;rounded=0;entryX=1.002;entryY=0.312;entryDx=0;entryDy=0;entryPerimeter=0;" parent="tJ6ijP1tUuQRt77W8Tcq-30" edge="1">
          <mxGeometry width="50" height="50" relative="1" as="geometry">
            <mxPoint y="120" as="sourcePoint" />
            <mxPoint x="120" y="120" as="targetPoint" />
          </mxGeometry>
        </mxCell>
        <mxCell id="tJ6ijP1tUuQRt77W8Tcq-35" value="&lt;span style=&quot;font-size: 8px;&quot;&gt;Pizarra&lt;/span&gt;" style="text;html=1;align=center;verticalAlign=middle;whiteSpace=wrap;rounded=0;" parent="tJ6ijP1tUuQRt77W8Tcq-30" vertex="1">
          <mxGeometry width="120" height="30" as="geometry" />
        </mxCell>
        <mxCell id="tJ6ijP1tUuQRt77W8Tcq-37" value="&lt;div style=&quot;font-size: 11px;&quot;&gt;-ancho: double&lt;/div&gt;&lt;div style=&quot;font-size: 11px;&quot;&gt;-alto: double&lt;/div&gt;" style="text;html=1;align=center;verticalAlign=middle;whiteSpace=wrap;rounded=0;" parent="tJ6ijP1tUuQRt77W8Tcq-30" vertex="1">
          <mxGeometry y="50" width="120" height="40" as="geometry" />
        </mxCell>
        <mxCell id="tJ6ijP1tUuQRt77W8Tcq-40" value="&lt;div style=&quot;&quot;&gt;&lt;font style=&quot;font-size: 8px;&quot;&gt;+ObtenerDimensiones(): double&lt;/font&gt;&lt;/div&gt;" style="text;html=1;align=center;verticalAlign=middle;whiteSpace=wrap;rounded=0;" parent="tJ6ijP1tUuQRt77W8Tcq-30" vertex="1">
          <mxGeometry y="120" width="120" height="40" as="geometry" />
        </mxCell>
        <mxCell id="tJ6ijP1tUuQRt77W8Tcq-47" style="edgeStyle=orthogonalEdgeStyle;rounded=0;orthogonalLoop=1;jettySize=auto;html=1;exitX=0.5;exitY=1;exitDx=0;exitDy=0;entryX=0.5;entryY=0;entryDx=0;entryDy=0;endArrow=none;endFill=0;" parent="1" source="tJ6ijP1tUuQRt77W8Tcq-15" target="UfTuCf3OS7GKTQSjwRax-17" edge="1">
          <mxGeometry relative="1" as="geometry" />
        </mxCell>
        <mxCell id="tJ6ijP1tUuQRt77W8Tcq-49" value="&lt;font style=&quot;font-size: 9px;&quot;&gt;1:N&lt;/font&gt;" style="text;html=1;align=center;verticalAlign=middle;whiteSpace=wrap;rounded=0;" parent="1" vertex="1">
          <mxGeometry x="1390" y="190" width="60" height="30" as="geometry" />
        </mxCell>
        <mxCell id="tJ6ijP1tUuQRt77W8Tcq-50" value="&lt;font style=&quot;font-size: 9px;&quot;&gt;1:1&lt;/font&gt;" style="text;html=1;align=center;verticalAlign=middle;whiteSpace=wrap;rounded=0;" parent="1" vertex="1">
          <mxGeometry x="1390" y="290" width="60" height="30" as="geometry" />
        </mxCell>
        <mxCell id="tJ6ijP1tUuQRt77W8Tcq-51" value="" style="rhombus;whiteSpace=wrap;html=1;fillColor=#f8cecc;strokeColor=#b85450;" parent="1" vertex="1">
          <mxGeometry x="1380" y="300" width="40" height="40" as="geometry" />
        </mxCell>
        <mxCell id="tiQHzQN0womBGGPq7z8X-1" value="0:1" style="text;html=1;align=center;verticalAlign=middle;whiteSpace=wrap;rounded=0;" vertex="1" parent="1">
          <mxGeometry x="1290" y="85" width="60" height="30" as="geometry" />
        </mxCell>
        <mxCell id="tiQHzQN0womBGGPq7z8X-2" value="1:1" style="text;html=1;align=center;verticalAlign=middle;whiteSpace=wrap;rounded=0;" vertex="1" parent="1">
          <mxGeometry x="1215" y="85" width="60" height="30" as="geometry" />
        </mxCell>
      </root>
    </mxGraphModel>
  </diagram>
  <diagram id="IubqsKRCvYwm9v-thLuF" name="Page-2">
    <mxGraphModel dx="1150" dy="509" grid="0" gridSize="10" guides="1" tooltips="1" connect="1" arrows="1" fold="1" page="0" pageScale="1" pageWidth="850" pageHeight="1100" math="0" shadow="0">
      <root>
        <mxCell id="0" />
        <mxCell id="1" parent="0" />
        <mxCell id="eLIHctDLw3GJHYmIPz8b-1" value="" style="group" vertex="1" connectable="0" parent="1">
          <mxGeometry x="50" y="30" width="760" height="570" as="geometry" />
        </mxCell>
        <mxCell id="eLIHctDLw3GJHYmIPz8b-2" value="" style="group" vertex="1" connectable="0" parent="eLIHctDLw3GJHYmIPz8b-1">
          <mxGeometry width="198.65739130434784" height="213.75" as="geometry" />
        </mxCell>
        <mxCell id="eLIHctDLw3GJHYmIPz8b-3" value="" style="whiteSpace=wrap;html=1;aspect=fixed;" vertex="1" parent="eLIHctDLw3GJHYmIPz8b-2">
          <mxGeometry width="198.2608695652174" height="198.2608695652174" as="geometry" />
        </mxCell>
        <mxCell id="eLIHctDLw3GJHYmIPz8b-4" value="" style="endArrow=none;html=1;rounded=0;exitX=0;exitY=0.333;exitDx=0;exitDy=0;exitPerimeter=0;entryX=1.002;entryY=0.336;entryDx=0;entryDy=0;entryPerimeter=0;" edge="1" parent="eLIHctDLw3GJHYmIPz8b-2">
          <mxGeometry width="50" height="50" relative="1" as="geometry">
            <mxPoint y="47.50000000000007" as="sourcePoint" />
            <mxPoint x="198.65739130434784" y="48.14125000000003" as="targetPoint" />
          </mxGeometry>
        </mxCell>
        <mxCell id="eLIHctDLw3GJHYmIPz8b-5" value="" style="endArrow=none;html=1;rounded=0;exitX=0;exitY=0.333;exitDx=0;exitDy=0;exitPerimeter=0;entryX=1.002;entryY=0.336;entryDx=0;entryDy=0;entryPerimeter=0;" edge="1" parent="eLIHctDLw3GJHYmIPz8b-2">
          <mxGeometry width="50" height="50" relative="1" as="geometry">
            <mxPoint y="154.375" as="sourcePoint" />
            <mxPoint x="198.2608695652174" y="154.375" as="targetPoint" />
          </mxGeometry>
        </mxCell>
        <mxCell id="eLIHctDLw3GJHYmIPz8b-6" value="Cliente" style="text;html=1;align=center;verticalAlign=middle;whiteSpace=wrap;rounded=0;" vertex="1" parent="eLIHctDLw3GJHYmIPz8b-2">
          <mxGeometry x="66.08695652173913" y="11.875" width="66.08695652173913" height="35.625" as="geometry" />
        </mxCell>
        <mxCell id="eLIHctDLw3GJHYmIPz8b-7" value="- nombre: string&lt;div&gt;-dni: string&lt;/div&gt;&lt;div&gt;-direccion: string&lt;/div&gt;&lt;div&gt;-edad: int&lt;/div&gt;" style="text;html=1;align=center;verticalAlign=middle;whiteSpace=wrap;rounded=0;" vertex="1" parent="eLIHctDLw3GJHYmIPz8b-2">
          <mxGeometry y="83.125" width="198.2608695652174" height="35.625" as="geometry" />
        </mxCell>
        <mxCell id="eLIHctDLw3GJHYmIPz8b-8" value="" style="rounded=0;whiteSpace=wrap;html=1;" vertex="1" parent="eLIHctDLw3GJHYmIPz8b-1">
          <mxGeometry x="277.87362318840576" y="332.5" width="187.24637681159422" height="237.5" as="geometry" />
        </mxCell>
        <mxCell id="eLIHctDLw3GJHYmIPz8b-9" value="" style="endArrow=none;html=1;rounded=0;entryX=1.032;entryY=0.295;entryDx=0;entryDy=0;entryPerimeter=0;" edge="1" parent="eLIHctDLw3GJHYmIPz8b-1">
          <mxGeometry width="50" height="50" relative="1" as="geometry">
            <mxPoint x="277.87362318840576" y="393.0625" as="sourcePoint" />
            <mxPoint x="471.11188405797105" y="391.875" as="targetPoint" />
          </mxGeometry>
        </mxCell>
        <mxCell id="eLIHctDLw3GJHYmIPz8b-10" value="Sucursales" style="text;html=1;align=center;verticalAlign=middle;whiteSpace=wrap;rounded=0;" vertex="1" parent="eLIHctDLw3GJHYmIPz8b-1">
          <mxGeometry x="338.4533333333333" y="344.375" width="66.08695652173913" height="35.625" as="geometry" />
        </mxCell>
        <mxCell id="eLIHctDLw3GJHYmIPz8b-11" value="-numeroSucursal: int&lt;div&gt;-direccion: string&lt;/div&gt;&lt;div&gt;-telefono: string&lt;/div&gt;" style="text;html=1;align=center;verticalAlign=middle;whiteSpace=wrap;rounded=0;" vertex="1" parent="eLIHctDLw3GJHYmIPz8b-1">
          <mxGeometry x="289.2846376811594" y="403.75" width="164.82086956521738" height="71.25" as="geometry" />
        </mxCell>
        <mxCell id="eLIHctDLw3GJHYmIPz8b-12" value="" style="endArrow=none;html=1;rounded=0;entryX=1;entryY=0.75;entryDx=0;entryDy=0;" edge="1" parent="eLIHctDLw3GJHYmIPz8b-1">
          <mxGeometry width="50" height="50" relative="1" as="geometry">
            <mxPoint x="277.87362318840576" y="486.875" as="sourcePoint" />
            <mxPoint x="465.11999999999995" y="486.875" as="targetPoint" />
          </mxGeometry>
        </mxCell>
        <mxCell id="eLIHctDLw3GJHYmIPz8b-13" value="" style="endArrow=none;html=1;rounded=0;exitX=1;exitY=0.5;exitDx=0;exitDy=0;" edge="1" parent="eLIHctDLw3GJHYmIPz8b-1" source="eLIHctDLw3GJHYmIPz8b-7">
          <mxGeometry width="50" height="50" relative="1" as="geometry">
            <mxPoint x="209.2753623188406" y="237.5" as="sourcePoint" />
            <mxPoint x="286.3768115942029" y="100.9375" as="targetPoint" />
            <Array as="points" />
          </mxGeometry>
        </mxCell>
        <mxCell id="eLIHctDLw3GJHYmIPz8b-14" value="&lt;font style=&quot;font-size: 8px;&quot;&gt;1:1&lt;/font&gt;" style="text;html=1;align=center;verticalAlign=middle;whiteSpace=wrap;rounded=0;" vertex="1" parent="eLIHctDLw3GJHYmIPz8b-1">
          <mxGeometry x="176.231884057971" y="71.25" width="66.08695652173913" height="35.625" as="geometry" />
        </mxCell>
        <mxCell id="eLIHctDLw3GJHYmIPz8b-15" value="" style="endArrow=none;html=1;rounded=0;entryX=0.531;entryY=1.014;entryDx=0;entryDy=0;entryPerimeter=0;exitX=0.549;exitY=0.005;exitDx=0;exitDy=0;exitPerimeter=0;" edge="1" parent="eLIHctDLw3GJHYmIPz8b-1" source="eLIHctDLw3GJHYmIPz8b-8" target="eLIHctDLw3GJHYmIPz8b-18">
          <mxGeometry width="50" height="50" relative="1" as="geometry">
            <mxPoint x="341.4492753623188" y="285" as="sourcePoint" />
            <mxPoint x="396.5217391304348" y="225.625" as="targetPoint" />
          </mxGeometry>
        </mxCell>
        <mxCell id="eLIHctDLw3GJHYmIPz8b-16" value="&lt;font style=&quot;font-size: 8px;&quot;&gt;1:1&lt;/font&gt;" style="text;html=1;align=center;verticalAlign=middle;whiteSpace=wrap;rounded=0;" vertex="1" parent="eLIHctDLw3GJHYmIPz8b-1">
          <mxGeometry x="363.47826086956525" y="296.875" width="66.08695652173913" height="35.625" as="geometry" />
        </mxCell>
        <mxCell id="eLIHctDLw3GJHYmIPz8b-17" value="&lt;font style=&quot;font-size: 8px;&quot;&gt;0:N&lt;/font&gt;" style="text;html=1;align=center;verticalAlign=middle;whiteSpace=wrap;rounded=0;" vertex="1" parent="eLIHctDLw3GJHYmIPz8b-1">
          <mxGeometry x="363.47826086956525" y="213.75" width="66.08695652173913" height="35.625" as="geometry" />
        </mxCell>
        <mxCell id="eLIHctDLw3GJHYmIPz8b-18" value="" style="rounded=0;whiteSpace=wrap;html=1;" vertex="1" parent="eLIHctDLw3GJHYmIPz8b-1">
          <mxGeometry x="286.3768115942029" width="176.231884057971" height="213.75" as="geometry" />
        </mxCell>
        <mxCell id="eLIHctDLw3GJHYmIPz8b-19" value="" style="endArrow=none;html=1;rounded=0;exitX=0;exitY=0.25;exitDx=0;exitDy=0;entryX=1;entryY=0.25;entryDx=0;entryDy=0;" edge="1" parent="eLIHctDLw3GJHYmIPz8b-1" source="eLIHctDLw3GJHYmIPz8b-18" target="eLIHctDLw3GJHYmIPz8b-18">
          <mxGeometry width="50" height="50" relative="1" as="geometry">
            <mxPoint x="330.4347826086956" y="106.875" as="sourcePoint" />
            <mxPoint x="473.6231884057971" y="61.75" as="targetPoint" />
          </mxGeometry>
        </mxCell>
        <mxCell id="eLIHctDLw3GJHYmIPz8b-20" value="" style="endArrow=none;html=1;rounded=0;exitX=0;exitY=0.25;exitDx=0;exitDy=0;entryX=1;entryY=0.25;entryDx=0;entryDy=0;" edge="1" parent="eLIHctDLw3GJHYmIPz8b-1">
          <mxGeometry width="50" height="50" relative="1" as="geometry">
            <mxPoint x="286.3768115942029" y="106.53062500000001" as="sourcePoint" />
            <mxPoint x="462.60869565217394" y="106.53062500000001" as="targetPoint" />
          </mxGeometry>
        </mxCell>
        <mxCell id="eLIHctDLw3GJHYmIPz8b-21" value="Cuenta" style="text;html=1;align=center;verticalAlign=middle;whiteSpace=wrap;rounded=0;" vertex="1" parent="eLIHctDLw3GJHYmIPz8b-1">
          <mxGeometry x="324.92753623188406" y="11.875" width="99.1304347826087" height="35.625" as="geometry" />
        </mxCell>
        <mxCell id="eLIHctDLw3GJHYmIPz8b-22" value="&lt;div&gt;-numeroCuenta&lt;/div&gt;-saldo: double" style="text;html=1;align=center;verticalAlign=middle;whiteSpace=wrap;rounded=0;" vertex="1" parent="eLIHctDLw3GJHYmIPz8b-1">
          <mxGeometry x="275.3623188405797" y="59.375" width="198.2608695652174" height="35.625" as="geometry" />
        </mxCell>
        <mxCell id="eLIHctDLw3GJHYmIPz8b-23" value="&lt;font style=&quot;font-size: 8px;&quot;&gt;+ ConsultarSaldo(): double&lt;/font&gt;&lt;div style=&quot;font-size: 8px;&quot;&gt;&lt;font style=&quot;font-size: 8px;&quot;&gt;+ RealizarAportacion(): void&lt;/font&gt;&lt;/div&gt;&lt;div style=&quot;font-size: 8px;&quot;&gt;&lt;font style=&quot;font-size: 8px;&quot;&gt;+ RealizarReintegro(): void&lt;/font&gt;&lt;/div&gt;" style="text;html=1;align=center;verticalAlign=middle;whiteSpace=wrap;rounded=0;" vertex="1" parent="eLIHctDLw3GJHYmIPz8b-1">
          <mxGeometry x="311.11536231884054" y="95" width="121.15942028985508" height="130.625" as="geometry" />
        </mxCell>
        <mxCell id="eLIHctDLw3GJHYmIPz8b-24" value="&lt;font style=&quot;font-size: 8px;&quot;&gt;0:N&lt;/font&gt;" style="text;html=1;align=center;verticalAlign=middle;whiteSpace=wrap;rounded=0;fontSize=6;" vertex="1" parent="eLIHctDLw3GJHYmIPz8b-1">
          <mxGeometry x="242.31884057971016" y="71.25" width="66.08695652173913" height="35.625" as="geometry" />
        </mxCell>
        <mxCell id="eLIHctDLw3GJHYmIPz8b-25" style="edgeStyle=orthogonalEdgeStyle;rounded=0;orthogonalLoop=1;jettySize=auto;html=1;exitX=0;exitY=0.5;exitDx=0;exitDy=0;entryX=1;entryY=0.5;entryDx=0;entryDy=0;endArrow=none;endFill=0;" edge="1" parent="eLIHctDLw3GJHYmIPz8b-1" source="eLIHctDLw3GJHYmIPz8b-26" target="eLIHctDLw3GJHYmIPz8b-18">
          <mxGeometry relative="1" as="geometry" />
        </mxCell>
        <mxCell id="eLIHctDLw3GJHYmIPz8b-26" value="" style="rounded=0;whiteSpace=wrap;html=1;" vertex="1" parent="eLIHctDLw3GJHYmIPz8b-1">
          <mxGeometry x="583.768115942029" width="176.231884057971" height="213.75" as="geometry" />
        </mxCell>
        <mxCell id="eLIHctDLw3GJHYmIPz8b-27" value="" style="endArrow=none;html=1;rounded=0;exitX=0;exitY=0.25;exitDx=0;exitDy=0;entryX=1;entryY=0.25;entryDx=0;entryDy=0;" edge="1" parent="eLIHctDLw3GJHYmIPz8b-1" source="eLIHctDLw3GJHYmIPz8b-26" target="eLIHctDLw3GJHYmIPz8b-26">
          <mxGeometry width="50" height="50" relative="1" as="geometry">
            <mxPoint x="649.8550724637681" y="95" as="sourcePoint" />
            <mxPoint x="704.927536231884" y="35.625" as="targetPoint" />
          </mxGeometry>
        </mxCell>
        <mxCell id="eLIHctDLw3GJHYmIPz8b-28" value="" style="endArrow=none;html=1;rounded=0;exitX=0;exitY=0.25;exitDx=0;exitDy=0;entryX=1;entryY=0.25;entryDx=0;entryDy=0;" edge="1" parent="eLIHctDLw3GJHYmIPz8b-1">
          <mxGeometry width="50" height="50" relative="1" as="geometry">
            <mxPoint x="583.768115942029" y="154.375" as="sourcePoint" />
            <mxPoint x="760" y="154.375" as="targetPoint" />
          </mxGeometry>
        </mxCell>
        <mxCell id="eLIHctDLw3GJHYmIPz8b-29" value="Movimientos" style="text;html=1;align=center;verticalAlign=middle;whiteSpace=wrap;rounded=0;" vertex="1" parent="eLIHctDLw3GJHYmIPz8b-1">
          <mxGeometry x="638.8405797101449" y="11.875" width="66.08695652173913" height="35.625" as="geometry" />
        </mxCell>
        <mxCell id="eLIHctDLw3GJHYmIPz8b-30" value="-Tipo: TipoMovimientos&lt;div&gt;&lt;/div&gt;&lt;div&gt;-fecha: date&lt;/div&gt;" style="text;html=1;align=center;verticalAlign=middle;whiteSpace=wrap;rounded=0;" vertex="1" parent="eLIHctDLw3GJHYmIPz8b-1">
          <mxGeometry x="561.7391304347826" y="59.375" width="198.2608695652174" height="35.625" as="geometry" />
        </mxCell>
        <mxCell id="eLIHctDLw3GJHYmIPz8b-31" value="" style="group" vertex="1" connectable="0" parent="eLIHctDLw3GJHYmIPz8b-1">
          <mxGeometry x="594.7826086956521" y="320.625" width="154.20289855072463" height="166.25" as="geometry" />
        </mxCell>
        <mxCell id="eLIHctDLw3GJHYmIPz8b-32" value="" style="rounded=0;whiteSpace=wrap;html=1;" vertex="1" parent="eLIHctDLw3GJHYmIPz8b-31">
          <mxGeometry width="154.20289855072463" height="166.25" as="geometry" />
        </mxCell>
        <mxCell id="eLIHctDLw3GJHYmIPz8b-33" value="" style="endArrow=none;html=1;rounded=0;entryX=0;entryY=0.25;entryDx=0;entryDy=0;exitX=1;exitY=0.25;exitDx=0;exitDy=0;" edge="1" parent="eLIHctDLw3GJHYmIPz8b-31">
          <mxGeometry width="50" height="50" relative="1" as="geometry">
            <mxPoint x="154.20289855072463" y="47.5" as="sourcePoint" />
            <mxPoint y="47.5" as="targetPoint" />
          </mxGeometry>
        </mxCell>
        <mxCell id="eLIHctDLw3GJHYmIPz8b-34" value="TipoMovimientos&lt;div&gt;&lt;br&gt;&lt;/div&gt;" style="text;html=1;align=center;verticalAlign=middle;whiteSpace=wrap;rounded=0;" vertex="1" parent="eLIHctDLw3GJHYmIPz8b-31">
          <mxGeometry x="44.05797101449275" y="11.875" width="66.08695652173913" height="35.625" as="geometry" />
        </mxCell>
        <mxCell id="eLIHctDLw3GJHYmIPz8b-35" value="" style="endArrow=none;html=1;rounded=0;entryX=0;entryY=0.25;entryDx=0;entryDy=0;exitX=1;exitY=0.25;exitDx=0;exitDy=0;" edge="1" parent="eLIHctDLw3GJHYmIPz8b-31">
          <mxGeometry width="50" height="50" relative="1" as="geometry">
            <mxPoint x="154.20289855072463" y="130.42312499999997" as="sourcePoint" />
            <mxPoint y="130.42312499999997" as="targetPoint" />
          </mxGeometry>
        </mxCell>
        <mxCell id="eLIHctDLw3GJHYmIPz8b-36" value="tipo1: ingreso&lt;div&gt;tipo2: retirada&lt;/div&gt;" style="text;html=1;align=center;verticalAlign=middle;whiteSpace=wrap;rounded=0;" vertex="1" parent="eLIHctDLw3GJHYmIPz8b-31">
          <mxGeometry y="59.375" width="143.18840579710144" height="35.625" as="geometry" />
        </mxCell>
        <mxCell id="eLIHctDLw3GJHYmIPz8b-37" value="" style="endArrow=none;html=1;rounded=0;exitX=0.607;exitY=-0.006;exitDx=0;exitDy=0;exitPerimeter=0;" edge="1" parent="eLIHctDLw3GJHYmIPz8b-1">
          <mxGeometry width="50" height="50" relative="1" as="geometry">
            <mxPoint x="671.8840579710145" y="319.62749999999994" as="sourcePoint" />
            <mxPoint x="671.9060869565217" y="213.75" as="targetPoint" />
            <Array as="points" />
          </mxGeometry>
        </mxCell>
        <mxCell id="eLIHctDLw3GJHYmIPz8b-38" value="&lt;font style=&quot;font-size: 8px;&quot;&gt;0:N&lt;/font&gt;" style="text;html=1;align=center;verticalAlign=middle;whiteSpace=wrap;rounded=0;" vertex="1" parent="eLIHctDLw3GJHYmIPz8b-1">
          <mxGeometry x="528.695652173913" y="71.25" width="66.08695652173913" height="35.625" as="geometry" />
        </mxCell>
        <mxCell id="eLIHctDLw3GJHYmIPz8b-39" value="&lt;font style=&quot;font-size: 8px;&quot;&gt;1:1&lt;/font&gt;" style="text;html=1;align=center;verticalAlign=middle;whiteSpace=wrap;rounded=0;" vertex="1" parent="eLIHctDLw3GJHYmIPz8b-1">
          <mxGeometry x="451.59420289855075" y="71.25" width="66.08695652173913" height="35.625" as="geometry" />
        </mxCell>
        <mxCell id="eLIHctDLw3GJHYmIPz8b-40" value="&lt;font style=&quot;font-size: 9px;&quot;&gt;Realiza&lt;/font&gt;" style="text;html=1;align=center;verticalAlign=middle;whiteSpace=wrap;rounded=0;" vertex="1" parent="eLIHctDLw3GJHYmIPz8b-1">
          <mxGeometry x="484.6376811594203" y="106.875" width="66.08695652173913" height="35.625" as="geometry" />
        </mxCell>
        <mxCell id="eLIHctDLw3GJHYmIPz8b-41" value="Controla" style="text;html=1;align=center;verticalAlign=middle;whiteSpace=wrap;rounded=0;rotation=-90;fontSize=9;" vertex="1" parent="eLIHctDLw3GJHYmIPz8b-1">
          <mxGeometry x="324.92753623188406" y="261.25" width="66.08695652173913" height="35.625" as="geometry" />
        </mxCell>
        <mxCell id="eLIHctDLw3GJHYmIPz8b-42" value="Tiene" style="text;html=1;align=center;verticalAlign=middle;whiteSpace=wrap;rounded=0;fontSize=9;" vertex="1" parent="eLIHctDLw3GJHYmIPz8b-1">
          <mxGeometry x="209.2753623188406" y="59.375" width="66.08695652173913" height="35.625" as="geometry" />
        </mxCell>
      </root>
    </mxGraphModel>
  </diagram>
</mxfile>
